<svg width="119" height="67" viewBox="0 0 119 67" fill="none" xmlns="http://www.w3.org/2000/svg">
<g style="mix-blend-mode:difference" clip-path="url(#clip0_239_1541)">
<path d="M115.947 0.394732H115.369V0.148956H116.784V0.394732H116.206V1.95876H115.947V0.394732ZM117.177 0.148956H117.451L118.096 1.13951L118.733 0.148956H119V1.95876H118.748V0.566031L118.111 1.54913H118.074L117.436 0.566031V1.95876H117.177V0.148956Z" fill="white" style="fill:white;fill-opacity:1;"/>
<path d="M16.7385 60.9599C16.7385 59.2469 16.7385 57.5265 16.7385 55.8135C16.7385 55.2474 16.5755 55.0091 16.0346 54.8974C12.6939 54.2261 9.58695 52.6852 7.02435 50.4287C3.56374 47.4975 1.2246 43.4481 0.407476 38.9741C-0.252583 35.8657 -0.157445 32.6432 0.68483 29.5796C1.5271 26.5161 3.09169 23.7017 5.24602 21.3751C8.29556 17.8854 12.4734 15.5906 17.0423 14.8955C20.1601 14.2649 23.3971 14.6592 26.2748 16.0201C28.6869 17.2349 30.6725 19.1609 31.9662 21.5405C33.2599 23.9202 33.7999 26.6402 33.5141 29.3367C32.7731 34.8927 29.7499 38.6315 24.5335 40.5679C24.3089 40.6148 24.111 40.7472 23.9811 40.9373C23.8513 41.1275 23.7997 41.3607 23.837 41.5883C23.837 49.7808 23.837 57.9733 23.837 66.1659C23.837 66.784 23.6962 66.9851 23.096 66.9702C21.2362 66.9255 19.3912 66.9702 17.5165 66.9702C16.9385 66.9702 16.7755 66.7766 16.7755 66.2254C16.7607 64.4827 16.7459 62.725 16.7385 60.9599ZM16.694 47.7401C16.694 47.3305 16.7385 47.0326 16.7385 46.7347C16.7385 43.629 16.7385 40.5158 16.8126 37.4101C16.8676 36.5487 17.2497 35.7415 17.8799 35.1552C18.51 34.569 19.3402 34.2484 20.1988 34.2597C20.826 34.248 21.4489 34.1529 22.0512 33.9767C23.2915 33.615 24.3881 32.8724 25.1874 31.8528C25.9866 30.8332 26.4484 29.5878 26.5081 28.2912C26.5677 26.9945 26.2222 25.7116 25.52 24.6223C24.8177 23.5329 23.794 22.6918 22.5922 22.2167C20.673 21.4272 18.7169 21.7102 16.8052 22.2167C13.9822 22.9738 11.4911 24.6557 9.72624 26.9962C7.9614 29.3367 7.02363 32.202 7.0614 35.1385C7.0592 37.1694 7.53381 39.1721 8.44666 40.9839C9.35951 42.7957 10.6848 44.3654 12.3149 45.5654C13.6073 46.59 15.0991 47.3308 16.694 47.7401Z" fill="white" style="fill:white;fill-opacity:1;"/>
<path d="M21.6215 0.052133C16.0069 -0.260145 10.4346 1.18954 5.67575 4.20053C5.18671 4.46865 4.74954 4.8187 4.2605 5.16129L8.33584 10.9035L8.72115 10.6726C12.9225 7.9691 17.2349 6.74022 21.6215 7.06792V0.052133Z" fill="white" style="fill:white;fill-opacity:1;"/>
<path d="M47.0813 20.9431C46.3013 17.7422 44.9425 14.7128 43.0726 12.0058H33.6771C37.7895 15.3498 40.1236 19.96 40.7534 25.6352C41.4203 31.5934 39.5901 36.9111 35.7296 41.4989C35.0405 42.3181 35.0405 42.6384 35.5592 43.5843C36.3002 44.9621 37.0411 46.3623 37.7821 47.7624C38.1378 48.5072 38.2934 48.5594 38.8417 47.9784C40.3317 46.5575 41.7138 45.0264 42.9763 43.3981C47.7037 36.5759 49.0226 29.0462 47.0813 20.9431Z" fill="white" style="fill:white;fill-opacity:1;"/>
<path d="M29.498 0.0744781H30.239L33.5882 7.52223H32.7286L31.8617 5.56347H27.8604L26.9935 7.51478H26.1488L29.498 0.0744781ZM31.5431 4.8038L29.8759 1.04269L28.1939 4.8038H31.5431Z" fill="white" style="fill:white;fill-opacity:1;"/>
<path d="M35.0701 0.126612H37.6264C38.1252 0.0994615 38.6242 0.173963 39.0936 0.345638C39.563 0.517314 39.993 0.782617 40.3578 1.1256C40.7225 1.46858 41.0145 1.88216 41.2162 2.34147C41.4179 2.80078 41.5251 3.29634 41.5313 3.79835C41.5321 4.30477 41.43 4.80602 41.2315 5.27145C41.0329 5.73688 40.742 6.1567 40.3765 6.50526C40.011 6.85382 39.5786 7.12378 39.1057 7.29864C38.6329 7.4735 38.1295 7.54958 37.6264 7.52223H35.0701V0.126612ZM35.9 0.871387V6.74022H37.6264C38.0197 6.76813 38.4144 6.71359 38.7856 6.58005C39.1568 6.44651 39.4964 6.23689 39.7827 5.96449C40.069 5.69209 40.2959 5.36285 40.449 4.99765C40.602 4.63245 40.6779 4.23927 40.6718 3.84304C40.683 3.4431 40.611 3.04523 40.4604 2.67487C40.3098 2.30451 40.0839 1.96982 39.7973 1.69221C39.5106 1.41461 39.1695 1.2002 38.7957 1.06271C38.4219 0.925213 38.0236 0.86766 37.6264 0.893731L35.9 0.871387Z" fill="white" style="fill:white;fill-opacity:1;"/>
<path d="M42.9762 3.84304C42.9537 3.33455 43.0339 2.82674 43.212 2.35026C43.3901 1.87377 43.6624 1.43849 44.0124 1.07066C44.3624 0.702837 44.783 0.410094 45.2486 0.210095C45.7143 0.0100961 46.2155 -0.0930138 46.7218 -0.0930138C47.2282 -0.0930138 47.7294 0.0100961 48.1951 0.210095C48.6607 0.410094 49.0813 0.702837 49.4313 1.07066C49.7813 1.43849 50.0536 1.87377 50.2317 2.35026C50.4098 2.82674 50.49 3.33455 50.4675 3.84304C50.4776 4.34527 50.3865 4.84437 50.1997 5.31029C50.0129 5.77622 49.7343 6.19934 49.3805 6.55419C49.0268 6.90905 48.6053 7.1883 48.1414 7.37514C47.6775 7.56198 47.1807 7.65255 46.6811 7.6414C46.1883 7.6415 45.7004 7.54276 45.246 7.35098C44.7916 7.1592 44.3798 6.87822 44.0348 6.5245C43.6898 6.17078 43.4185 5.75142 43.2367 5.29099C43.0549 4.83056 42.9664 4.3383 42.9762 3.84304ZM49.645 3.84304C49.661 3.44191 49.5961 3.04167 49.4543 2.66636C49.3125 2.29105 49.0968 1.94842 48.8199 1.65904C48.5431 1.36965 48.2109 1.1395 47.8434 0.982387C47.4758 0.825276 47.0805 0.744455 46.6811 0.744776C46.2913 0.748278 45.9062 0.83101 45.5491 0.987992C45.1919 1.14497 44.8701 1.37296 44.6029 1.65824C44.3357 1.94351 44.1287 2.28017 43.9943 2.64796C43.8599 3.01575 43.8009 3.40706 43.8209 3.79836C43.806 4.19113 43.8698 4.58291 44.0084 4.95045C44.1471 5.31798 44.3578 5.65377 44.628 5.93789C44.8982 6.22201 45.2225 6.44866 45.5815 6.6044C45.9406 6.76013 46.3271 6.84178 46.7181 6.84449C47.1049 6.84374 47.4876 6.76475 47.8434 6.61224C48.1992 6.45972 48.5208 6.23678 48.789 5.95672C49.0573 5.67665 49.2667 5.34518 49.4049 4.98205C49.543 4.61892 49.607 4.23156 49.5931 3.84304H49.645Z" fill="white" style="fill:white;fill-opacity:1;"/>
<path d="M52.2087 0.126614H55.3727C56.1397 0.0882344 56.8907 0.355915 57.4622 0.871389C57.6503 1.06926 57.7971 1.30302 57.8938 1.55886C57.9905 1.8147 58.0353 2.08743 58.0254 2.36094C58.0122 2.89811 57.8009 3.41121 57.4326 3.80067C57.0643 4.19014 56.5652 4.42819 56.0322 4.46865L58.2551 7.485H57.2696L55.143 4.6474H53.0386V7.51479H52.2087V0.126614ZM55.2986 3.89518C56.4026 3.89518 57.1881 3.3217 57.1881 2.40563C57.1881 1.497 56.4916 0.916076 55.306 0.916076H53.0386V3.89518H55.2986Z" fill="white" style="fill:white;fill-opacity:1;"/>
<path d="M59.8037 0.126614H60.5817L65.2128 6.08482V0.126614H66.0205V7.51479H65.361L60.6114 1.48955V7.54458H59.8037V0.126614Z" fill="white" style="fill:white;fill-opacity:1;"/>
<path d="M71.2517 0.126614H74.0007C75.6605 0.126614 76.7497 1.0129 76.7497 2.47266C76.7497 4.06648 75.4308 4.89318 73.8673 4.89318H72.0816V7.49989H71.2517V0.126614ZM73.897 4.1484C75.1122 4.1484 75.9124 3.493 75.9124 2.52479C75.9124 1.46721 75.127 0.916076 73.9414 0.916076H72.0816V4.1484H73.897Z" fill="white" style="fill:white;fill-opacity:1;"/>
<path d="M80.2471 0.0744781H80.988L84.3372 7.52223H83.4481L82.5885 5.57092H78.5873L77.713 7.52223H76.8608L80.2471 0.0744781ZM82.2996 4.8038L80.625 1.04269L78.9504 4.8038H82.2996Z" fill="white" style="fill:white;fill-opacity:1;"/>
<path d="M85.8267 0.126614H86.5676L91.1987 6.08482V0.126614H92.0064V7.51479H91.3395L86.6343 1.48955V7.54458H85.8267V0.126614Z" fill="white" style="fill:white;fill-opacity:1;"/>
<path d="M94.1033 0.126614H99.416V0.871389H94.9258V3.41107H98.9418V4.15585H94.9258V6.75512H99.4679V7.49989H94.1033V0.126614Z" fill="white" style="fill:white;fill-opacity:1;"/>
<path d="M101.157 0.126614H101.987V6.74022H106.122V7.48499H101.157V0.126614Z" fill="white" style="fill:white;fill-opacity:1;"/>
<path d="M107.174 6.43486L107.693 5.82414C108.021 6.1599 108.413 6.42539 108.846 6.60459C109.279 6.78379 109.744 6.873 110.212 6.86683C111.198 6.86683 111.85 6.34549 111.85 5.61561C111.85 4.93041 111.479 4.53568 109.938 4.21543C108.248 3.84304 107.47 3.29191 107.47 2.07792C107.47 0.92352 108.486 0.0670285 109.886 0.0670285C110.828 0.0396062 111.746 0.363247 112.465 0.975655L111.983 1.61616C111.406 1.0754 110.652 0.765452 109.864 0.744774C108.908 0.744774 108.3 1.27356 108.3 1.94386C108.3 2.64395 108.678 3.03123 110.294 3.38128C111.909 3.73132 112.687 4.34204 112.687 5.4741C112.687 6.74022 111.635 7.55947 110.175 7.55947C109.068 7.58958 107.992 7.18639 107.174 6.43486Z" fill="white" style="fill:white;fill-opacity:1;"/>
</g>
<defs>
<clipPath id="clip0_239_1541">
<rect width="119" height="67" fill="white" style="fill:white;fill-opacity:1;"/>
</clipPath>
</defs>
</svg>
