<svg width="119" height="67" viewBox="0 0 119 67" fill="none" xmlns="http://www.w3.org/2000/svg">
<g clip-path="url(#clip0_2023_1939)">
<path d="M115.947 0.394732H115.369V0.148956H116.784V0.394732H116.206V1.95876H115.947V0.394732ZM117.177 0.148956H117.451L118.096 1.13951L118.733 0.148956H119V1.95876H118.748V0.566031L118.111 1.54913H118.074L117.436 0.566031V1.95876H117.177V0.148956Z" fill="#231F20"/>
<path d="M16.7385 60.9599C16.7385 59.2469 16.7385 57.5265 16.7385 55.8135C16.7385 55.2474 16.5755 55.0091 16.0346 54.8974C12.6939 54.226 9.58695 52.6852 7.02435 50.4287C3.56374 47.4975 1.2246 43.4481 0.407476 38.9741C-0.252583 35.8657 -0.157445 32.6432 0.68483 29.5796C1.5271 26.516 3.09169 23.7017 5.24602 21.375C8.29556 17.8854 12.4734 15.5906 17.0423 14.8955C20.1601 14.2649 23.3971 14.6592 26.2748 16.0201C28.6869 17.2349 30.6725 19.1608 31.9662 21.5405C33.2599 23.9202 33.7999 26.6402 33.5141 29.3367C32.7731 34.8927 29.7499 38.6315 24.5335 40.5679C24.3089 40.6148 24.111 40.7472 23.9811 40.9373C23.8513 41.1275 23.7997 41.3607 23.837 41.5883C23.837 49.7808 23.837 57.9733 23.837 66.1658C23.837 66.784 23.6962 66.9851 23.096 66.9702C21.2362 66.9255 19.3912 66.9702 17.5165 66.9702C16.9385 66.9702 16.7755 66.7766 16.7755 66.2254C16.7607 64.4827 16.7459 62.725 16.7385 60.9599ZM16.694 47.7401C16.694 47.3305 16.7385 47.0326 16.7385 46.7347C16.7385 43.6289 16.7385 40.5158 16.8126 37.4101C16.8676 36.5487 17.2497 35.7415 17.8799 35.1552C18.51 34.5689 19.3402 34.2483 20.1988 34.2597C20.826 34.248 21.4489 34.1528 22.0512 33.9766C23.2915 33.615 24.3881 32.8724 25.1874 31.8528C25.9866 30.8332 26.4484 29.5878 26.5081 28.2912C26.5677 26.9945 26.2222 25.7116 25.52 24.6223C24.8177 23.5329 23.794 22.6917 22.5922 22.2166C20.673 21.4272 18.7169 21.7102 16.8052 22.2166C13.9822 22.9738 11.4911 24.6557 9.72624 26.9962C7.9614 29.3367 7.02363 32.202 7.0614 35.1385C7.0592 37.1694 7.53381 39.1721 8.44666 40.9839C9.35951 42.7957 10.6848 44.3654 12.3149 45.5654C13.6073 46.59 15.0991 47.3308 16.694 47.7401Z" fill="#231F20"/>
<path d="M21.6215 0.052133C16.0069 -0.260145 10.4346 1.18954 5.67575 4.20053C5.18671 4.46865 4.74954 4.8187 4.2605 5.16129L8.33584 10.9035L8.72115 10.6726C12.9225 7.9691 17.2349 6.74022 21.6215 7.06792V0.052133Z" fill="#231F20"/>
<path d="M47.0812 20.9431C46.3012 17.7422 44.9424 14.7128 43.0725 12.0058H33.677C37.7894 15.3498 40.1235 19.96 40.7533 25.6352C41.4202 31.5934 39.59 36.9111 35.7295 41.4989C35.0404 42.3181 35.0404 42.6384 35.5591 43.5843C36.3 44.9621 37.041 46.3623 37.782 47.7624C38.1377 48.5072 38.2933 48.5594 38.8416 47.9784C40.3316 46.5575 41.7137 45.0264 42.9762 43.3981C47.7036 36.5759 49.0225 29.0462 47.0812 20.9431Z" fill="#231F20"/>
<path d="M29.4981 0.0744781H30.2391L33.5883 7.52223H32.7287L31.8618 5.56347H27.8606L26.9936 7.51478H26.1489L29.4981 0.0744781ZM31.5432 4.8038L29.876 1.04269L28.194 4.8038H31.5432Z" fill="#231F20"/>
<path d="M35.0701 0.126604H37.6264C38.1252 0.0994538 38.6242 0.173956 39.0936 0.345631C39.563 0.517306 39.993 0.782609 40.3578 1.12559C40.7225 1.46857 41.0145 1.88215 41.2162 2.34146C41.4179 2.80077 41.5251 3.29633 41.5313 3.79835C41.5321 4.30477 41.43 4.80601 41.2315 5.27144C41.0329 5.73687 40.742 6.1567 40.3765 6.50525C40.011 6.85381 39.5786 7.12377 39.1057 7.29863C38.6329 7.47349 38.1295 7.54957 37.6264 7.52222H35.0701V0.126604ZM35.9 0.87138V6.74021H37.6264C38.0197 6.76812 38.4144 6.71358 38.7856 6.58004C39.1568 6.4465 39.4964 6.23689 39.7827 5.96448C40.069 5.69208 40.2959 5.36284 40.449 4.99764C40.602 4.63245 40.6779 4.23926 40.6718 3.84303C40.683 3.44309 40.611 3.04522 40.4604 2.67486C40.3098 2.3045 40.0839 1.96981 39.7973 1.69221C39.5106 1.4146 39.1695 1.20019 38.7957 1.0627C38.4219 0.925206 38.0236 0.867653 37.6264 0.893723L35.9 0.87138Z" fill="#231F20"/>
<path d="M42.9764 3.84304C42.9539 3.33454 43.0341 2.82674 43.2121 2.35025C43.3902 1.87377 43.6625 1.43849 44.0125 1.07066C44.3626 0.702834 44.7831 0.41009 45.2488 0.210091C45.7144 0.0100923 46.2156 -0.0930176 46.722 -0.0930176C47.2284 -0.0930176 47.7295 0.0100923 48.1952 0.210091C48.6609 0.41009 49.0814 0.702834 49.4314 1.07066C49.7814 1.43849 50.0537 1.87377 50.2318 2.35025C50.4099 2.82674 50.4901 3.33454 50.4676 3.84304C50.4777 4.34527 50.3866 4.84436 50.1998 5.31029C50.013 5.77621 49.7344 6.19934 49.3806 6.55419C49.0269 6.90905 48.6054 7.1883 48.1415 7.37514C47.6776 7.56198 47.1809 7.65255 46.6812 7.64139C46.1884 7.64149 45.7005 7.54276 45.2461 7.35098C44.7917 7.1592 44.38 6.87822 44.0349 6.5245C43.6899 6.17077 43.4186 5.75142 43.2368 5.29099C43.0551 4.83055 42.9665 4.3383 42.9764 3.84304ZM49.6451 3.84304C49.6611 3.44191 49.5962 3.04167 49.4544 2.66636C49.3127 2.29105 49.0969 1.94841 48.8201 1.65903C48.5432 1.36965 48.2111 1.13949 47.8435 0.982383C47.476 0.825272 47.0806 0.744451 46.6812 0.744772C46.2914 0.748274 45.9064 0.831006 45.5492 0.987988C45.1921 1.14497 44.8702 1.37296 44.603 1.65823C44.3358 1.94351 44.1288 2.28017 43.9944 2.64796C43.86 3.01575 43.8011 3.40706 43.8211 3.79835C43.8062 4.19113 43.8699 4.58291 44.0086 4.95044C44.1472 5.31797 44.3579 5.65376 44.6281 5.93788C44.8983 6.222 45.2226 6.44866 45.5817 6.60439C45.9407 6.76013 46.3272 6.84178 46.7183 6.84448C47.1051 6.84374 47.4877 6.76475 47.8435 6.61223C48.1993 6.45971 48.5209 6.23678 48.7892 5.95672C49.0574 5.67665 49.2669 5.34518 49.405 4.98205C49.5431 4.61892 49.6072 4.23156 49.5932 3.84304H49.6451Z" fill="#231F20"/>
<path d="M52.2087 0.12661H55.3727C56.1397 0.0882306 56.8907 0.355911 57.4622 0.871385C57.6503 1.06926 57.7971 1.30302 57.8938 1.55886C57.9905 1.8147 58.0353 2.08743 58.0254 2.36094C58.0122 2.89811 57.8009 3.41121 57.4326 3.80067C57.0643 4.19013 56.5652 4.42819 56.0322 4.46865L58.2551 7.48499H57.2696L55.143 4.6474H53.0386V7.51478H52.2087V0.12661ZM55.2986 3.89517C56.4026 3.89517 57.1881 3.3217 57.1881 2.40562C57.1881 1.497 56.4916 0.916072 55.306 0.916072H53.0386V3.89517H55.2986Z" fill="#231F20"/>
<path d="M59.8037 0.126602H60.5817L65.2128 6.08481V0.126602H66.0205V7.51477H65.361L60.6114 1.48954V7.54457H59.8037V0.126602Z" fill="#231F20"/>
<path d="M71.2517 0.126602H74.0007C75.6605 0.126602 76.7497 1.01288 76.7497 2.47264C76.7497 4.06646 75.4308 4.89317 73.8673 4.89317H72.0816V7.49988H71.2517V0.126602ZM73.897 4.14839C75.1122 4.14839 75.9124 3.49299 75.9124 2.52478C75.9124 1.4672 75.127 0.916064 73.9414 0.916064H72.0816V4.14839H73.897Z" fill="#231F20"/>
<path d="M80.2471 0.0744781H80.988L84.3372 7.52223H83.4481L82.5885 5.57092H78.5873L77.713 7.52223H76.8608L80.2471 0.0744781ZM82.2996 4.8038L80.625 1.04269L78.9504 4.8038H82.2996Z" fill="#231F20"/>
<path d="M85.8267 0.126602H86.5676L91.1987 6.08481V0.126602H92.0064V7.51477H91.3395L86.6343 1.48954V7.54457H85.8267V0.126602Z" fill="#231F20"/>
<path d="M94.1033 0.126602H99.416V0.871378H94.9258V3.41106H98.9418V4.15584H94.9258V6.7551H99.4679V7.49988H94.1033V0.126602Z" fill="#231F20"/>
<path d="M101.157 0.126602H101.987V6.74021H106.122V7.48498H101.157V0.126602Z" fill="#231F20"/>
<path d="M107.174 6.43486L107.693 5.82414C108.021 6.1599 108.413 6.42538 108.846 6.60459C109.279 6.78379 109.744 6.87299 110.212 6.86682C111.198 6.86682 111.85 6.34548 111.85 5.6156C111.85 4.93041 111.479 4.53568 109.938 4.21542C108.248 3.84304 107.47 3.2919 107.47 2.07792C107.47 0.923516 108.486 0.0670247 109.886 0.0670247C110.828 0.0396024 111.746 0.363243 112.465 0.975651L111.983 1.61616C111.406 1.07539 110.652 0.765449 109.864 0.74477C108.908 0.74477 108.3 1.27356 108.3 1.94386C108.3 2.64395 108.678 3.03123 110.294 3.38128C111.909 3.73132 112.687 4.34204 112.687 5.47409C112.687 6.74021 111.635 7.55947 110.175 7.55947C109.068 7.58957 107.992 7.18638 107.174 6.43486Z" fill="#231F20"/>
</g>
<defs>
<clipPath id="clip0_2023_1939">
<rect width="119" height="67" fill="white"/>
</clipPath>
</defs>
</svg>
