<svg width="567" height="320" viewBox="0 0 567 320" fill="none" xmlns="http://www.w3.org/2000/svg">
<g clip-path="url(#clip0_239_1762)">
<path d="M552.454 1.88528H549.7V0.711426H556.444V1.88528H553.69V9.35527H552.454V1.88528ZM558.315 0.711426H559.621L562.693 5.44242L565.729 0.711426H567V9.35527H565.8V2.70342L562.763 7.39884H562.587L559.551 2.70342V9.35527H558.315V0.711426Z" fill="#231F20"/>
<path d="M79.7542 291.152C79.7542 282.97 79.7542 274.753 79.7542 266.572C79.7542 263.868 78.9775 262.73 76.4002 262.196C60.4827 258.99 45.6793 251.631 33.4692 240.854C16.9804 226.854 5.83512 207.513 1.94176 186.145C-1.20323 171.299 -0.74992 155.908 3.26327 141.276C7.27646 126.644 14.7313 113.202 24.996 102.09C39.5262 85.4229 59.4322 74.4626 81.2017 71.1427C96.0573 68.1309 111.48 70.0141 125.192 76.514C136.685 82.3157 146.146 91.5145 152.31 102.88C158.474 114.246 161.047 127.237 159.685 140.116C156.154 166.652 141.75 184.509 116.895 193.757C115.825 193.981 114.882 194.613 114.263 195.522C113.645 196.43 113.399 197.544 113.577 198.63C113.577 237.759 113.577 276.887 113.577 316.016C113.577 318.968 112.906 319.929 110.046 319.858C101.184 319.644 92.3934 319.858 83.4613 319.858C80.7075 319.858 79.9307 318.933 79.9307 316.301C79.8601 307.977 79.7895 299.582 79.7542 291.152ZM79.5424 228.012C79.5424 226.056 79.7542 224.633 79.7542 223.21C79.7542 208.377 79.7542 193.508 80.1073 178.675C80.3694 174.561 82.1899 170.706 85.1925 167.906C88.1951 165.105 92.1506 163.574 96.2417 163.628C99.2302 163.573 102.198 163.118 105.068 162.277C110.978 160.549 116.203 157.002 120.011 152.133C123.819 147.263 126.019 141.315 126.303 135.122C126.588 128.929 124.941 122.802 121.595 117.599C118.249 112.396 113.371 108.378 107.645 106.109C98.5012 102.339 89.1807 103.69 80.072 106.109C66.6212 109.726 54.7519 117.759 46.343 128.937C37.934 140.116 33.4658 153.8 33.6457 167.826C33.6353 177.525 35.8967 187.091 40.2461 195.744C44.5956 204.397 50.9104 211.894 58.6771 217.626C64.8351 222.519 71.9431 226.058 79.5424 228.012Z" fill="#231F20"/>
<path d="M103.02 0.248731C76.2685 -1.24274 49.718 5.68111 27.0437 20.062C24.7136 21.3426 22.6306 23.0144 20.3004 24.6507L39.7182 52.0762L41.5541 50.9735C61.5721 38.0611 82.1196 32.1918 103.02 33.757V0.248731Z" fill="#231F20"/>
<path d="M224.329 100.026C220.612 84.7388 214.138 70.2697 205.229 57.3408H160.462C180.056 73.3124 191.177 95.331 194.178 122.436C197.356 150.894 188.635 176.291 170.241 198.203C166.958 202.116 166.958 203.646 169.429 208.163C172.96 214.744 176.49 221.432 180.021 228.119C181.715 231.676 182.457 231.925 185.069 229.15C192.169 222.364 198.754 215.051 204.77 207.274C227.294 174.691 233.579 138.728 224.329 100.026Z" fill="#231F20"/>
<path d="M140.55 0.355469H144.08L160.038 35.9268H155.943L151.812 26.5716H132.747L128.617 35.8913H124.592L140.55 0.355469ZM150.294 22.9433L142.35 4.97975L134.336 22.9433H150.294Z" fill="#231F20"/>
<path d="M167.099 0.60464H179.279C181.656 0.474967 184.034 0.830796 186.27 1.65074C188.507 2.47068 190.555 3.7378 192.293 5.37592C194.031 7.01404 195.423 8.98934 196.384 11.1831C197.345 13.3768 197.855 15.7436 197.885 18.1413C197.889 20.56 197.402 22.9541 196.456 25.177C195.51 27.3999 194.124 29.4051 192.383 31.0698C190.641 32.7346 188.581 34.0239 186.328 34.8591C184.075 35.6942 181.676 36.0576 179.279 35.927H167.099V0.60464ZM171.053 4.16178V32.192H179.279C181.153 32.3253 183.034 32.0648 184.803 31.427C186.571 30.7892 188.189 29.7881 189.553 28.4871C190.918 27.186 191.999 25.6135 192.728 23.8693C193.457 22.1251 193.819 20.2472 193.79 18.3548C193.843 16.4446 193.5 14.5443 192.782 12.7754C192.065 11.0065 190.989 9.40801 189.623 8.08214C188.257 6.75627 186.632 5.73223 184.851 5.07554C183.069 4.41886 181.172 4.14398 179.279 4.26849L171.053 4.16178Z" fill="#231F20"/>
<path d="M204.77 18.3547C204.662 15.9261 205.045 13.5008 205.893 11.225C206.742 8.94928 208.039 6.87031 209.707 5.11353C211.374 3.35674 213.378 1.95857 215.597 1.00335C217.816 0.048129 220.204 -0.444336 222.616 -0.444336C225.029 -0.444336 227.417 0.048129 229.636 1.00335C231.855 1.95857 233.858 3.35674 235.526 5.11353C237.194 6.87031 238.491 8.94928 239.34 11.225C240.188 13.5008 240.57 15.9261 240.463 18.3547C240.511 20.7534 240.077 23.1372 239.187 25.3625C238.297 27.5878 236.97 29.6087 235.284 31.3035C233.599 32.9984 231.59 34.3321 229.38 35.2245C227.17 36.1168 224.803 36.5494 222.422 36.4961C220.074 36.4966 217.749 36.025 215.584 35.1091C213.419 34.1931 211.457 32.8511 209.813 31.1617C208.17 29.4723 206.877 27.4694 206.011 25.2703C205.145 23.0712 204.723 20.7201 204.77 18.3547ZM236.544 18.3547C236.62 16.4389 236.311 14.5273 235.636 12.7348C234.96 10.9422 233.932 9.30578 232.613 7.92366C231.294 6.54154 229.711 5.44228 227.96 4.6919C226.209 3.94153 224.325 3.55551 222.422 3.55705C220.565 3.57377 218.73 3.96891 217.029 4.71868C215.327 5.46844 213.793 6.55734 212.52 7.91984C211.247 9.28234 210.261 10.8903 209.62 12.6469C208.98 14.4035 208.699 16.2725 208.794 18.1413C208.723 20.0173 209.027 21.8885 209.688 23.6438C210.348 25.3992 211.352 27.003 212.64 28.36C213.927 29.7169 215.472 30.7995 217.183 31.5433C218.894 32.2871 220.735 32.6771 222.599 32.69C224.442 32.6864 226.265 32.3092 227.96 31.5807C229.655 30.8523 231.188 29.7875 232.466 28.4499C233.744 27.1123 234.742 25.5291 235.4 23.7948C236.058 22.0604 236.363 20.2104 236.297 18.3547H236.544Z" fill="#231F20"/>
<path d="M248.76 0.604711H263.835C267.489 0.421407 271.068 1.69988 273.791 4.16185C274.687 5.1069 275.387 6.22337 275.848 7.44529C276.308 8.66722 276.521 9.96981 276.474 11.2761C276.411 13.8417 275.405 16.2923 273.65 18.1525C271.895 20.0126 269.517 21.1496 266.977 21.3428L277.569 35.7492H272.873L262.741 22.1965H252.714V35.8915H248.76V0.604711ZM263.482 18.6038C268.742 18.6038 272.485 15.8648 272.485 11.4895C272.485 7.14984 269.166 4.37528 263.517 4.37528H252.714V18.6038H263.482Z" fill="#231F20"/>
<path d="M284.948 0.604492H288.655L310.72 29.0616V0.604492H314.568V35.8913H311.426L288.796 7.11405V36.0336H284.948V0.604492Z" fill="#231F20"/>
<path d="M339.494 0.604492H352.592C360.5 0.604492 365.69 4.83748 365.69 11.8095C365.69 19.4217 359.406 23.3702 351.957 23.3702H343.448V35.8201H339.494V0.604492ZM352.098 19.813C357.888 19.813 361.701 16.6828 361.701 12.0585C361.701 7.00734 357.958 4.37506 352.31 4.37506H343.448V19.813H352.098Z" fill="#231F20"/>
<path d="M382.354 0.355469H385.885L401.843 35.9268H397.606L393.511 26.6071H374.446L370.28 35.9268H366.22L382.354 0.355469ZM392.134 22.9433L384.155 4.97975L376.176 22.9433H392.134Z" fill="#231F20"/>
<path d="M408.939 0.604492H412.469L434.535 29.0616V0.604492H438.383V35.8913H435.206L412.787 7.11405V36.0336H408.939V0.604492Z" fill="#231F20"/>
<path d="M448.375 0.604492H473.689V4.16163H452.294V16.2915H471.429V19.8486H452.294V32.263H473.936V35.8201H448.375V0.604492Z" fill="#231F20"/>
<path d="M481.985 0.604492H485.94V32.1919H505.64V35.749H481.985V0.604492Z" fill="#231F20"/>
<path d="M510.653 30.7337L513.124 27.8169C514.688 29.4205 516.558 30.6885 518.621 31.5444C520.684 32.4003 522.897 32.8263 525.128 32.7968C529.824 32.7968 532.931 30.3069 532.931 26.8209C532.931 23.5483 531.165 21.663 523.822 20.1334C515.772 18.3549 512.065 15.7226 512.065 9.92446C512.065 4.4109 516.902 0.320191 523.575 0.320191C528.061 0.189219 532.438 1.73496 535.861 4.6599L533.566 7.71904C530.818 5.13627 527.226 3.65595 523.469 3.55719C518.914 3.55719 516.019 6.08275 516.019 9.28417C516.019 12.6279 517.82 14.4776 525.517 16.1494C533.213 17.8213 536.92 20.7382 536.92 26.145C536.92 32.1921 531.907 36.105 524.952 36.105C519.675 36.2488 514.549 34.3231 510.653 30.7337Z" fill="#231F20"/>
</g>
<defs>
<clipPath id="clip0_239_1762">
<rect width="567" height="320" fill="white"/>
</clipPath>
</defs>
</svg>
