<svg width="773" height="65" viewBox="0 0 773 65" fill="none" xmlns="http://www.w3.org/2000/svg">
<path d="M747.585 4.06059H742.773V2.01447H754.556V4.06059H749.744V17.0814H747.585V4.06059ZM757.825 2.01447H760.107L765.474 10.261L770.779 2.01447H773V17.0814H770.903V5.48667L765.598 13.6712H765.289L759.984 5.48667V17.0814H757.825V2.01447Z" fill="white"/>
<path d="M27.8825 1.39447H34.0512L61.9338 63.3982H54.7781L47.5607 47.0912H14.2497L7.03232 63.3362H0L27.8825 1.39447ZM44.9081 40.7668L31.0286 9.45495L17.0256 40.7668H44.9081Z" fill="white"/>
<path d="M74.2711 1.82833H95.5531C99.7054 1.6023 103.86 2.22253 107.768 3.65176C111.676 5.08098 115.255 7.28967 118.292 10.145C121.329 13.0004 123.76 16.4435 125.439 20.2674C127.118 24.0912 128.01 28.2168 128.062 32.3962C128.068 36.6122 127.219 40.7851 125.566 44.6599C123.913 48.5346 121.491 52.0298 118.448 54.9316C115.405 57.8334 111.805 60.0808 107.869 61.5366C103.932 62.9923 99.7415 63.6257 95.5531 63.398H74.2711V1.82833ZM81.1801 8.0287V56.8876H95.5531C98.8272 57.12 102.114 56.6659 105.204 55.5542C108.294 54.4425 111.121 52.6974 113.505 50.4296C115.888 48.1618 117.777 45.4208 119.051 42.3805C120.326 39.3402 120.957 36.0669 120.906 32.7682C120.999 29.4386 120.4 26.1262 119.146 23.0429C117.892 19.9596 116.012 17.1733 113.626 14.8622C111.24 12.5511 108.399 10.7661 105.287 9.62147C102.175 8.47681 98.8599 7.99767 95.5531 8.21471L81.1801 8.0287Z" fill="white"/>
<path d="M140.091 32.7683C139.904 28.535 140.572 24.3074 142.054 20.3406C143.537 16.3738 145.803 12.75 148.717 9.68779C151.631 6.62559 155.132 4.18845 159.009 2.52343C162.886 0.858405 167.058 0 171.274 0C175.49 0 179.662 0.858405 183.539 2.52343C187.415 4.18845 190.916 6.62559 193.83 9.68779C196.744 12.75 199.011 16.3738 200.494 20.3406C201.976 24.3074 202.644 28.535 202.457 32.7683C202.541 36.9494 201.783 41.1045 200.228 44.9834C198.673 48.8623 196.353 52.3848 193.408 55.339C190.463 58.2933 186.954 60.6181 183.092 62.1736C179.23 63.729 175.094 64.483 170.935 64.3902C166.832 64.391 162.77 63.569 158.987 61.9724C155.204 60.3758 151.776 58.0366 148.904 55.0918C146.032 52.147 143.773 48.6559 142.26 44.8227C140.746 40.9895 140.009 36.8914 140.091 32.7683ZM195.609 32.7683C195.742 29.4288 195.203 26.0967 194.022 22.9722C192.842 19.8477 191.045 16.9952 188.741 14.5861C186.436 12.1769 183.671 10.2608 180.611 8.95288C177.551 7.64491 174.26 6.97205 170.935 6.97473C167.69 7.00389 164.484 7.69264 161.511 8.99954C158.537 10.3064 155.858 12.2045 153.633 14.5794C151.409 16.9544 149.685 19.7571 148.566 22.819C147.448 25.8809 146.957 29.1387 147.123 32.3963C146.999 35.6662 147.53 38.9278 148.684 41.9876C149.839 45.0473 151.593 47.8429 153.842 50.2082C156.092 52.5735 158.791 54.4604 161.781 55.757C164.77 57.0535 167.988 57.7332 171.243 57.7558C174.463 57.7495 177.649 57.092 180.611 55.8222C183.573 54.5525 186.25 52.6966 188.484 50.365C190.717 48.0334 192.46 45.2738 193.611 42.2507C194.761 39.2276 195.294 36.0028 195.178 32.7683H195.609Z" fill="white"/>
<path d="M216.953 1.82845H243.294C249.679 1.50894 255.931 3.73742 260.689 8.02882C262.255 9.67612 263.477 11.6222 264.282 13.7521C265.088 15.882 265.46 18.1526 265.377 20.4296C265.268 24.9016 263.509 29.1732 260.443 32.4156C257.377 35.6579 253.222 37.6398 248.784 37.9766L267.29 63.0881H259.085L241.381 39.4647H223.862V63.3361H216.953V1.82845ZM242.677 33.2023C251.868 33.2023 258.407 28.428 258.407 20.8016C258.407 13.2371 252.608 8.40084 242.738 8.40084H223.862V33.2023H242.677Z" fill="white"/>
<path d="M280.182 1.82849H286.66L325.214 51.4315V1.82849H331.938V63.3362H326.448L286.906 13.1752V63.5842H280.182V1.82849Z" fill="white"/>
<path d="M375.489 1.82849H398.375C412.193 1.82849 421.261 9.20693 421.261 21.3597C421.261 34.6285 410.28 41.5109 397.264 41.5109H382.398V63.2122H375.489V1.82849ZM397.511 35.3105C407.628 35.3105 414.29 29.8542 414.29 21.7937C414.29 12.9892 407.751 8.40089 397.881 8.40089H382.398V35.3105H397.511Z" fill="white"/>
<path d="M450.377 1.39447H456.546L484.428 63.3982H477.026L469.87 47.1532H436.559L429.28 63.3982H422.186L450.377 1.39447ZM467.464 40.7668L453.523 9.45495L439.582 40.7668H467.464Z" fill="white"/>
<path d="M496.827 1.82849H502.996L541.55 51.4315V1.82849H548.274V63.3362H542.722L503.551 13.1752V63.5842H496.827V1.82849Z" fill="white"/>
<path d="M565.732 1.82849H609.961V8.02886H572.579V29.1721H606.013V35.3725H572.579V57.0118H610.393V63.2122H565.732V1.82849Z" fill="white"/>
<path d="M624.458 1.82849H631.367V56.8878H665.788V63.0882H624.458V1.82849Z" fill="white"/>
<path d="M674.547 54.3456L678.865 49.2612C681.597 52.0565 684.864 54.2667 688.469 55.7586C692.073 57.2505 695.941 57.9931 699.839 57.9418C708.043 57.9418 713.472 53.6015 713.472 47.5251C713.472 41.8208 710.387 38.5346 697.557 35.8684C683.492 32.7683 677.015 28.18 677.015 18.0734C677.015 8.4628 685.466 1.33238 697.125 1.33238C704.964 1.10408 712.61 3.79844 718.592 8.89683L714.582 14.2291C709.78 9.72719 703.505 7.14686 696.94 6.97471C688.982 6.97471 683.924 11.377 683.924 16.9573C683.924 22.7857 687.07 26.0099 700.518 28.924C713.965 31.8382 720.443 36.9225 720.443 46.3471C720.443 56.8877 711.683 63.7081 699.531 63.7081C690.311 63.9587 681.354 60.6021 674.547 54.3456Z" fill="white"/>
</svg>
